<?xml version="1.0" encoding="utf-8"?>
<!-- Generator: Adobe Illustrator 14.0.0, SVG Export Plug-In . SVG Version: 6.00 Build 43363)  -->
<!DOCTYPE svg PUBLIC "-//W3C//DTD SVG 1.1//EN" "http://www.w3.org/Graphics/SVG/1.1/DTD/svg11.dtd">
<svg version="1.1" id="图层_1" xmlns="http://www.w3.org/2000/svg" xmlns:xlink="http://www.w3.org/1999/xlink" x="0px" y="0px"
	 width="2672px" height="1336px" viewBox="0 0 2672 1336" enable-background="new 0 0 2672 1336" xml:space="preserve">
<rect x="-1" y="0" stroke="#000000" width="2672" height="1336"/>
<g id="接地_x28_ground_x29_">
	<line fill="none" stroke="#FCEE21" stroke-width="2" x1="167.552" y1="832.95" x2="167.552" y2="863.135"/>
	<line fill="none" stroke="#FCEE21" stroke-width="2" x1="152.796" y1="863.135" x2="182.982" y2="863.135"/>
	<line fill="none" stroke="#FCEE21" stroke-width="2" x1="157.827" y1="870.682" x2="177.951" y2="870.682"/>
	<line fill="none" stroke="#FCEE21" stroke-width="2" x1="164.198" y1="878.227" x2="170.906" y2="878.227"/>
</g>
<text transform="matrix(1 0 0 1 527.0715 881.7791)" font-family="'AdobeSongStd-Light-GBpc-EUC-H'" font-size="40.2477">注释</text>
<g>
	<g>
		<circle fill="#FFFFFF" fill-opacity="0" stroke="#FFFF00" stroke-width="2" cx="1120.133" cy="1111.193" r="37.732"/>
		<line fill="none" stroke="#FFFF00" x1="1119.293" y1="1112.035" x2="1104.198" y2="1096.938"/>
		<line fill="none" stroke="#FFFF00" x1="1119.293" y1="1112.035" x2="1134.386" y2="1096.938"/>
		<line fill="none" stroke="#FFFF00" x1="1119.293" y1="1112.035" x2="1119.293" y2="1127.125"/>
		<circle fill="#FFFFFF" fill-opacity="0" stroke="#FFFF00" stroke-width="2" cx="1173.781" cy="1151.441" r="37.732"/>
		<line fill="none" stroke="#FFFF00" x1="1172.941" y1="1152.278" x2="1157.859" y2="1137.185"/>
		<line fill="none" stroke="#FFFF00" x1="1172.941" y1="1152.278" x2="1188.037" y2="1137.185"/>
		<line fill="none" stroke="#FFFF00" x1="1172.941" y1="1152.278" x2="1172.941" y2="1167.372"/>
		<circle fill="#FFFFFF" fill-opacity="0" stroke="#FFFF00" stroke-width="2" cx="1173.781" cy="1081.85" r="37.732"/>
		<line fill="none" stroke="#FFFF00" x1="1172.941" y1="1082.682" x2="1157.859" y2="1067.594"/>
		<line fill="none" stroke="#FFFF00" x1="1172.941" y1="1082.682" x2="1188.037" y2="1067.594"/>
		<line fill="none" stroke="#FFFF00" x1="1172.941" y1="1082.682" x2="1172.941" y2="1097.775"/>
		<g>
			<path fill="#FFFF00" d="M1225.769,1149.927c-21.356,0-38.731-17.375-38.731-38.732c0-21.354,17.375-38.729,38.731-38.729
				c21.354,0,38.729,17.375,38.729,38.729C1264.502,1132.552,1247.127,1149.927,1225.769,1149.927L1225.769,1149.927z
				 M1225.769,1074.467c-20.255,0-36.731,16.479-36.731,36.729c0,20.256,16.479,36.729,36.731,36.729
				c20.254,0,36.729-16.479,36.729-36.729C1262.502,1090.938,1246.023,1074.467,1225.769,1074.467L1225.769,1074.467z"/>
		</g>
		<polygon fill="#FFFFFF" fill-opacity="0" stroke="#FFFF00" points="1238.842,1124.262 1203.131,1114.7 1229.281,1088.553 		"/>
		<line fill="none" stroke="#FFFF00" x1="1172.941" y1="1082.682" x2="1037.115" y2="1082.682"/>
		<line fill="none" stroke="#FFFF00" x1="1119.293" y1="1112.035" x2="1037.115" y2="1112.035"/>
		<line fill="none" stroke="#FFFF00" x1="1172.941" y1="1152.278" x2="1037.115" y2="1152.278"/>
		<line fill="none" stroke="#FFFF00" x1="1037.115" y1="1082.682" x2="1037.115" y2="1209.016"/>
	</g>
	
		<text transform="matrix(1 0 0 1 1282.7952 1101.1335)" fill="#FFFF00" font-family="'AdobeSongStd-Light-GBpc-EUC-H'" font-size="40.2477">注释</text>
</g>
<g id="三环">
	<g id="三环_x28_sanhuan_x29_">
		<line fill="none" stroke="#FFFF00" x1="693.656" y1="1032.819" x2="693.656" y2="1189.617"/>
		<g>
			<path fill="#FFFF00" d="M694.907,1123.118c-21.354,0-38.729-17.375-38.729-38.729c0-21.354,17.375-38.732,38.729-38.732
				c21.354,0,38.729,17.378,38.729,38.732C733.642,1105.743,716.268,1123.118,694.907,1123.118L694.907,1123.118z M694.907,1047.655
				c-20.254,0-36.729,16.479-36.729,36.731s16.479,36.729,36.729,36.729c20.259,0,36.729-16.479,36.729-36.729
				C731.643,1064.135,715.166,1047.655,694.907,1047.655L694.907,1047.655z"/>
		</g>
		<line fill="none" stroke="#FFFF00" x1="694.073" y1="1086.902" x2="678.983" y2="1071.811"/>
		<line fill="none" stroke="#FFFF00" x1="694.073" y1="1086.902" x2="709.168" y2="1071.811"/>
		<line fill="none" stroke="#FFFF00" x1="694.073" y1="1086.902" x2="694.073" y2="1101.994"/>
		<g>
			<path fill="#FFFF00" d="M750.254,1149.95c-21.354,0-38.729-17.375-38.729-38.729c0-21.357,17.375-38.732,38.729-38.732
				c21.354,0,38.729,17.375,38.729,38.732C788.987,1132.575,771.612,1149.95,750.254,1149.95L750.254,1149.95z M750.254,1074.486
				c-20.254,0-36.729,16.479-36.729,36.732s16.479,36.729,36.729,36.729c20.254,0,36.729-16.479,36.729-36.729
				C786.987,1090.969,770.508,1074.486,750.254,1074.486L750.254,1074.486z"/>
		</g>
		<circle fill="#FFFFFF" fill-opacity="0" stroke="#FFFF00" stroke-width="2" cx="694.907" cy="1138.05" r="37.732"/>
		<line fill="none" stroke="#FFFF00" x1="694.073" y1="1140.565" x2="678.983" y2="1125.476"/>
		<line fill="none" stroke="#FFFF00" x1="694.073" y1="1140.565" x2="709.168" y2="1125.476"/>
		<line fill="none" stroke="#FFFF00" x1="694.073" y1="1140.565" x2="694.073" y2="1155.658"/>
		<polygon fill="#FCEE21" fill-opacity="0" stroke="#FFFF00" points="762.414,1126.308 732.149,1114.177 757.781,1094.027 		"/>
	</g>
	<text transform="matrix(1 0 0 1 847.9377 1065.9402)" font-family="'AdobeSongStd-Light-GBpc-EUC-H'" font-size="40.2477">注释</text>
	
		<text transform="matrix(1 0 0 1 847.9377 1065.9402)" fill="none" stroke="#FCEE21" font-family="'AdobeSongStd-Light-GBpc-EUC-H'" font-size="40.2477">注释</text>
</g>
<text onclick="alert('{&quot;compil_info&quot;:&quot;1&quot;,&quot;compil_version&quot;:&quot;0.1&quot;,&quot;widget_type&quot;:&quot;aiText&quot;,&quot;signalType&quot;:&quot;yaoceObj&quot;,&quot;Address&quot;:&quot;1&quot;}')" transform="matrix(1 0 0 1 524.5559 876.7712)" fill="#FCEE21" enable-background="new    " font-family="'AdobeSongStd-Light-GBpc-EUC-H'" font-size="40.2477">数据</text>
<text transform="matrix(1 0 0 1 1422.801 1149.949)" fill="#FFFF00" font-family="'AdobeSongStd-Light-GBpc-EUC-H'" font-size="40.2477">跳转到</text>
<text transform="matrix(1 0 0 1 1422.801 1149.949)" fill="none" stroke="#FCEE21" font-family="'AdobeSongStd-Light-GBpc-EUC-H'" font-size="40.2477">跳转到</text>
<text transform="matrix(1 0 0 1 1552.7678 1145.7576)" fill="#FFFF00" font-family="'ArialMT'" font-size="40.2477">svg1</text>
<text transform="matrix(1 0 0 1 1552.7678 1145.7576)" fill="none" stroke="#FCEE21" font-family="'ArialMT'" font-size="40.2477">svg1</text>
<g id="变压器_x28_transformer_x29__1_">
	<line fill="none" stroke="#FFFF00" stroke-width="2" x1="224.222" y1="1054.242" x2="224.222" y2="1190.079"/>
	<circle fill="#FFFFFF" fill-opacity="0" stroke="#FCEE21" stroke-width="2" cx="224.222" cy="1099.521" r="30.186"/>
	<circle fill="#FFFFFF" fill-opacity="0" stroke="#FCEE21" stroke-width="2" cx="224.222" cy="1144.8" r="30.186"/>
	<polygon fill="#FFFFFF" fill-opacity="0" stroke="#FCEE21" stroke-width="2" points="239.315,1114.614 203.606,1105.052 
		229.748,1078.904 	"/>
	<line fill="none" stroke="#FCEE21" stroke-width="2" x1="209.131" y1="1129.707" x2="224.222" y2="1144.804"/>
	<line fill="none" stroke="#FCEE21" stroke-width="2" x1="224.222" y1="1144.804" x2="239.315" y2="1129.707"/>
	<line fill="none" stroke="#FCEE21" stroke-width="2" x1="224.222" y1="1144.804" x2="224.222" y2="1159.893"/>
</g>
<g>
	<g id="避雷组件_5_">
		<g>
			<path fill="#FFFF00" d="M1206.072,897.844h-32.188V805.28h32.188V897.844L1206.072,897.844z M1175.888,895.844h28.188V807.28
				h-28.188V895.844L1175.888,895.844z"/>
		</g>
		<line fill="none" stroke="#FFFF00" stroke-width="2" x1="1189.98" y1="776.094" x2="1189.98" y2="851.557"/>
		<polygon fill="#FFFF00" stroke="#FFFF00" stroke-width="2" points="1191.478,872.551 1180.123,852.875 1201.705,853.524 		"/>
	</g>
	<g id="接地_x28_ground_x29__7_">
		<line fill="none" stroke="#FFFF00" stroke-width="2" x1="1189.644" y1="896.843" x2="1189.644" y2="927.021"/>
		<line fill="none" stroke="#FFFF00" stroke-width="2" x1="1174.888" y1="927.021" x2="1205.071" y2="927.021"/>
		<line fill="none" stroke="#FFFF00" stroke-width="2" x1="1179.916" y1="934.568" x2="1200.041" y2="934.568"/>
		<line fill="none" stroke="#FCEE21" stroke-width="2" x1="1186.289" y1="942.114" x2="1192.996" y2="942.114"/>
	</g>
</g>
<g>
	<line fill="none" stroke="#FFFF00" stroke-width="2" x1="1278.967" y1="788.242" x2="1278.967" y2="833.521"/>
	<rect x="1248.78" y="833.521" fill="#FFFF00" stroke="#FFF800" stroke-width="2" width="60.372" height="30.186"/>
	<g id="接地_x28_ground_x29__6_">
		<line fill="none" stroke="#FFFF00" stroke-width="2" x1="1278.631" y1="863.707" x2="1278.631" y2="893.892"/>
		<line fill="none" stroke="#FFFF00" stroke-width="2" x1="1263.873" y1="893.892" x2="1294.061" y2="893.892"/>
		<line fill="none" stroke="#FFFF00" stroke-width="2" x1="1268.905" y1="901.439" x2="1289.029" y2="901.439"/>
		<line fill="none" stroke="#FCEE21" stroke-width="2" x1="1275.277" y1="908.986" x2="1281.985" y2="908.986"/>
	</g>
</g>
<g id="小车开关_3_">
	<line fill="none" stroke="#FCEE21" stroke-width="2" x1="1338.929" y1="794.385" x2="1354.019" y2="779.287"/>
	<line fill="none" stroke="#FCEE21" stroke-width="2" x1="1354.019" y1="779.287" x2="1369.113" y2="794.385"/>
	<line fill="none" stroke="#FCEE21" stroke-width="2" x1="1338.929" y1="809.473" x2="1354.019" y2="794.385"/>
	<line fill="none" stroke="#FCEE21" stroke-width="2" x1="1354.019" y1="794.385" x2="1369.113" y2="809.473"/>
	<line fill="none" stroke="#FCEE21" stroke-width="2" x1="1369.113" y1="900.031" x2="1354.019" y2="915.134"/>
	<line fill="none" stroke="#FCEE21" stroke-width="2" x1="1354.019" y1="915.134" x2="1338.929" y2="900.031"/>
	<line fill="none" stroke="#FCEE21" stroke-width="2" x1="1369.113" y1="915.134" x2="1354.019" y2="930.219"/>
	<line fill="none" stroke="#FCEE21" stroke-width="2" x1="1354.019" y1="930.219" x2="1338.929" y2="915.134"/>
</g>
<g id="变压器_x28_transformer_x29__2_">
	<line fill="none" stroke="#FFFF00" stroke-width="2" x1="946.024" y1="803.51" x2="946.024" y2="914.702"/>
	<circle fill="#FFFFFF" fill-opacity="0" stroke="#FCEE21" stroke-width="2" cx="946.024" cy="843.346" r="21.55"/>
	<circle fill="#FFFFFF" fill-opacity="0" stroke="#FCEE21" stroke-width="2" cx="946.024" cy="875.669" r="21.549"/>
</g>
<g>
	<line fill="none" stroke="#FCEE21" stroke-width="2" x1="481.461" y1="852.118" x2="506.005" y2="874.93"/>
	<line fill="none" stroke="#FCEE21" stroke-width="2" x1="481.865" y1="874.969" x2="504.678" y2="850.427"/>
</g>
<g>
	<circle fill="#FFFFFF" fill-opacity="0" stroke="#FCEE21" stroke-width="2" cx="1018.873" cy="851.573" r="18.063"/>
	<g id="接地_x28_ground_x29__1_">
		<line fill="none" stroke="#FCEE21" stroke-width="2" x1="1019.342" y1="833.219" x2="1019.342" y2="813.733"/>
		<line fill="none" stroke="#FCEE21" stroke-width="2" x1="1034.099" y1="812.028" x2="1003.907" y2="812.028"/>
		<line fill="none" stroke="#FCEE21" stroke-width="2" x1="1029.068" y1="804.482" x2="1008.944" y2="804.482"/>
		<line fill="none" stroke="#FCEE21" stroke-width="2" x1="1022.696" y1="796.935" x2="1015.988" y2="796.935"/>
	</g>
	<g>
		<line fill="none" stroke="#FCEE21" stroke-width="2" x1="1006.603" y1="842.125" x2="1031.146" y2="864.942"/>
		<line fill="none" stroke="#FCEE21" stroke-width="2" x1="1007.007" y1="864.971" x2="1029.82" y2="840.427"/>
	</g>
	<line fill="none" stroke="#FCEE21" stroke-width="2" x1="1018.416" y1="889.443" x2="1018.416" y2="869.968"/>
	<g>
		<line fill="none" stroke="#FCEE21" stroke-width="2" x1="1027.727" y1="889.443" x2="1007.603" y2="889.443"/>
		<line fill="none" stroke="#FCEE21" stroke-width="2" x1="1027.727" y1="902.859" x2="1007.603" y2="902.859"/>
	</g>
</g>
<polygon fill="#FFFFFF" fill-opacity="0" stroke="#FCEE21" stroke-width="2" points="353.381,875.27 316.416,874.76 335.344,843 "/>
<circle fill="#FFFFFF" fill-opacity="0" stroke="#FCEE21" stroke-width="2" cx="221.552" cy="863.734" r="21.55"/>
<g>
	<line fill="none" stroke="#FFFF00" x1="283.601" y1="863.329" x2="268.508" y2="848.235"/>
	<line fill="none" stroke="#FFFF00" x1="283.601" y1="863.329" x2="298.694" y2="848.235"/>
	<line fill="none" stroke="#FFFF00" x1="283.601" y1="863.329" x2="283.601" y2="878.427"/>
</g>
<g>
	<line fill="none" stroke="#FCEE21" stroke-width="2" x1="374.156" y1="863.329" x2="389.252" y2="848.235"/>
	<line fill="none" stroke="#FCEE21" stroke-width="2" x1="389.252" y1="848.235" x2="404.344" y2="863.329"/>
	<line fill="none" stroke="#FCEE21" stroke-width="2" x1="374.156" y1="878.427" x2="389.252" y2="863.329"/>
	<line fill="none" stroke="#FCEE21" stroke-width="2" x1="389.252" y1="863.329" x2="404.344" y2="878.427"/>
</g>
<g>
	<line fill="none" stroke="#FCEE21" stroke-width="2" x1="435.84" y1="876.772" x2="417.675" y2="848.614"/>
	<line fill="none" stroke="#FCEE21" stroke-width="2" x1="455.344" y1="848.177" x2="435.983" y2="875.522"/>
</g>
<g>
	<circle fill="#FFFFFF" fill-opacity="0" stroke="#FCEE21" stroke-width="2" cx="711.524" cy="859.103" r="21.55"/>
	<g>
		<line fill="none" stroke="#FCEE21" stroke-width="2" x1="710.856" y1="880.62" x2="692.691" y2="852.459"/>
		<line fill="none" stroke="#FCEE21" stroke-width="2" x1="730.362" y1="852.017" x2="711.002" y2="879.365"/>
	</g>
</g>
<g>
	<g>
		<circle fill="#FFFFFF" fill-opacity="0" stroke="#FCEE21" stroke-width="2" cx="1118.048" cy="845.24" r="21.549"/>
		<g>
			<line fill="none" stroke="#FCEE21" stroke-width="2" x1="1117.373" y1="866.76" x2="1099.212" y2="838.594"/>
			<line fill="none" stroke="#FCEE21" stroke-width="2" x1="1136.881" y1="838.152" x2="1117.521" y2="865.51"/>
		</g>
	</g>
	<g>
		<circle fill="#FFFFFF" fill-opacity="0" stroke="#FCEE21" stroke-width="2" cx="1118.048" cy="885.488" r="21.55"/>
		<g>
			<line fill="none" stroke="#FCEE21" stroke-width="2" x1="1117.373" y1="907.01" x2="1099.212" y2="878.844"/>
			<line fill="none" stroke="#FCEE21" stroke-width="2" x1="1136.881" y1="878.4" x2="1117.521" y2="905.76"/>
		</g>
	</g>
	<line fill="none" stroke="#FFFF00" stroke-width="2" x1="1117.409" y1="930.32" x2="1117.409" y2="808.943"/>
	<g>
		<line fill="none" stroke="#FFFF00" stroke-width="2" x1="1117.656" y1="808.943" x2="1063.698" y2="808.943"/>
	</g>
</g>
<g>
	<line fill="none" stroke="#FFFF00" stroke-width="3" x1="829.448" y1="818.413" x2="829.448" y2="795.828"/>
	<line fill="none" stroke="#FFFF00" stroke-width="3" x1="829.448" y1="848.385" x2="829.448" y2="826.068"/>
	<line fill="none" stroke="#FFFF00" stroke-width="3" x1="829.448" y1="877.677" x2="829.448" y2="855.094"/>
	<line fill="none" stroke="#FFFF00" stroke-width="3" x1="829.448" y1="933.562" x2="829.448" y2="890.705"/>
	<polygon fill="#FFFFFF" fill-opacity="0" stroke="#FCEE21" stroke-width="2" points="847.938,892.514 810.969,892 829.897,860.243 
			"/>
	<path fill="#FFFFFF" fill-opacity="0" stroke="#FCEE21" stroke-width="2" d="M830.217,819.76c7.689,0,13.938,6.23,13.938,13.938
		c0,7.694-6.238,13.938-13.938,13.938c-7.688,0-13.938-6.233-13.938-13.938C816.281,825.991,822.527,819.76,830.217,819.76z"/>
</g>
<g id="lampAWIDGET" onclick="alert('{&quot;compil_info&quot;:&quot;1&quot;,&quot;compil_version&quot;:&quot;0.1&quot;,&quot;widget_type&quot;:&quot;lampA&quot;,&quot;address&quot;:&quot;3&quot;,&quot;ng-click&quot;:&quot;lampAWIDGET_fun($event)&quot;}')">
	<g>
		<path fill="#CCCCCC" d="M2172.205,687.063c0,4.611-3.771,8.388-8.393,8.388h-92.666c-4.605,0-8.389-3.771-8.389-8.388v-92.667
			c0-4.608,3.771-8.385,8.389-8.385h92.666c4.607,0,8.393,3.771,8.393,8.385V687.063z"/>
		<path fill="none" stroke="#000000" d="M2172.205,687.063c0,4.611-3.771,8.388-8.393,8.388h-92.666
			c-4.605,0-8.389-3.771-8.389-8.388v-92.667c0-4.608,3.771-8.385,8.389-8.385h92.666c4.607,0,8.393,3.771,8.393,8.385V687.063z"/>
	</g>
	<g id="colorIndicate">
		<path fill="#00FF33" d="M2159.123,671.108c0,4.612-3.771,8.389-8.391,8.389h-68.857c-4.609,0-8.389-3.771-8.389-8.389v-57.459
			c0-4.609,3.771-8.386,8.389-8.386h68.857c4.607,0,8.391,3.771,8.391,8.386V671.108z"/>
		<path fill="none" stroke="#000000" d="M2159.123,671.108c0,4.612-3.771,8.389-8.391,8.389h-68.857
			c-4.609,0-8.389-3.771-8.389-8.389v-57.459c0-4.609,3.771-8.386,8.389-8.386h68.857c4.607,0,8.391,3.771,8.391,8.386V671.108z"/>
	</g>
	
		<rect id="targetEle_1_" x="2046.418" y="570.065" fill="#00FF33" fill-opacity="0" stroke="#FFFFFF" stroke-width="2" width="145.557" height="145.557"/>
</g>
<g id="lampBWIDGET" onclick="alert('{&quot;compil_info&quot;:&quot;1&quot;,&quot;compil_version&quot;:&quot;0.1&quot;,&quot;widget_type&quot;:&quot;lampB&quot;,&quot;address&quot;:&quot;3&quot;,&quot;signalType&quot;:&quot;yaoxinObj&quot;}')">
	<ellipse stroke="#FCEE21" stroke-width="2" cx="2323.981" cy="664.154" rx="65.4" ry="37.292"/>
	<path fill="#3333FF" stroke="#FCEE21" stroke-width="2" d="M2373.473,588.195c0-17.079-21.775-30.92-48.658-30.92
		c-26.885,0-48.658,13.846-48.658,30.918c0,2.196,0.369,4.346,1.063,6.399h-1.063v76.758h97.314v-76.755h-1.057
		C2373.11,592.532,2373.473,590.386,2373.473,588.195z"/>
	<path id="colorIndicate_1_" fill="#33FF00" stroke="#FCEE21" stroke-width="2" d="M2373.862,589.282
		c0-17.063-21.781-30.909-48.656-30.909s-48.668,13.847-48.668,30.909c0,2.203,0.363,4.345,1.061,6.41h-1.061v76.752h97.316v-76.752
		h-1.057C2373.5,593.625,2373.862,591.479,2373.862,589.282z"/>
</g>
<g id="普通阀">
	<rect x="1576.946" y="778.594" fill="none" stroke="#FFFF00" width="121.676" height="9.508"/>
	<rect x="1631.375" y="787.805" fill="none" stroke="#FFFF00" width="9.73" height="71.312"/>
	<polygon fill="#FFFFFF" fill-opacity="0" stroke="#FCEE21" stroke-width="2" points="1693.979,834.851 1693.078,886.717 
		1637.99,860.159 	"/>
	<polygon fill="#FFFFFF" fill-opacity="0" stroke="#FCEE21" stroke-width="2" points="1577.375,885.034 1578.27,833.177 
		1633.365,859.726 	"/>
</g>
<g id="indicateValveWIDGET" onclick="alert('{&quot;compil_info&quot;:&quot;1&quot;,&quot;compil_version&quot;:&quot;0.1&quot;,&quot;widget_type&quot;:&quot;indicateValve&quot;,&quot;address&quot;:&quot;3&quot;,&quot;ng-class&quot;:&quot;{opened:newCurrentData.yaoxinObj[3].value}&quot;}')">
	<rect id="colorIndicator_2_" x="1792.303" y="572.802" fill="#FF0000" stroke="#FFFF00" width="121.67" height="9.513"/>
	<rect x="1846.734" y="582.01" fill="none" stroke="#FFFF00" width="9.729" height="71.313"/>
	<polygon id="colorIndicator_1_" fill="#FF0000" stroke="#FCEE21" stroke-width="2" points="1909.336,629.067 1908.443,680.927 
		1853.352,654.372 	"/>
	<polygon id="colorIndicator" fill="#FF0000" stroke="#FCEE21" stroke-width="2" points="1792.734,679.248 1793.627,627.394 
		1848.723,653.939 	"/>
</g>
<g id="showcontrolWIDGET" onclick="alert('{&quot;compil_info&quot;:&quot;1&quot;,&quot;compil_version&quot;:&quot;0.1&quot;,&quot;widget_type&quot;:&quot;showcontrollor&quot;}')" display="none">
	
		<circle id="controllor" display="inline" fill="#00FF00" stroke="#FCEE21" stroke-width="2" cx="1267.314" cy="580.391" r="41.546"/>
	<g id="showItem" display="inline">
		<rect x="1350.739" y="527.106" fill="none" stroke="#FCEE21" stroke-width="2" width="319.258" height="181.111"/>
		<line fill="none" stroke="#FCEE21" stroke-width="2" x1="1350.739" y1="662.942" x2="1669.996" y2="662.942"/>
		<line fill="none" stroke="#FCEE21" stroke-width="2" x1="1350.739" y1="617.664" x2="1669.996" y2="617.664"/>
		<line fill="none" stroke="#FCEE21" stroke-width="2" x1="1350.739" y1="572.385" x2="1669.996" y2="572.385"/>
		<line fill="none" stroke="#FCEE21" stroke-width="2" x1="1590.182" y1="527.106" x2="1590.182" y2="708.221"/>
		<line fill="none" stroke="#FCEE21" stroke-width="2" x1="1510.36" y1="527.106" x2="1510.36" y2="708.221"/>
		<line fill="none" stroke="#FCEE21" stroke-width="2" x1="1430.553" y1="527.106" x2="1430.553" y2="708.221"/>
	</g>
</g>
<g id="closeWIDGET">
	<line fill="none" stroke="#FFFF00" stroke-width="2" x1="2443.037" y1="855.621" x2="2461.188" y2="873.769"/>
	<line fill="none" stroke="#FFFF00" stroke-width="2" x1="2461.188" y1="855.946" x2="2443.339" y2="873.799"/>
	<circle id="targetEle" fill="none" stroke="#FFFF00" stroke-width="2" cx="2452.841" cy="864.765" r="13.416"/>
</g>
<text onclick="alert('{&quot;compil_info&quot;:&quot;1&quot;,&quot;compil_version&quot;:&quot;0.1&quot;,&quot;widget_type&quot;:&quot;normalUnnormal&quot;,&quot;address&quot;:&quot;3&quot;}')" transform="matrix(1 0 0 1 2172.2043 889.366)" fill="#FFFF00" enable-background="new    " font-family="'AdobeSongStd-Light-GBpc-EUC-H'" font-size="40.2477">正常异常</text>
<g id="carSwitchBWIDGET">
	
		<g id="switchBWIDGET_1_" onclick="alert('{&quot;compil_info&quot;:&quot;1&quot;,&quot;compil_version&quot;:&quot;0.1&quot;,&quot;widget_type&quot;:&quot;switchB&quot;,&quot;address&quot;:&quot;3&quot;}')">
		
			<line id="普通开关_x5F_连接线_8_" fill="none" stroke="#FCEE21" stroke-width="3" x1="1908.181" y1="1170.234" x2="1908.181" y2="1105.229"/>
		
			<line id="普通开关_x5F_连接线_3_" fill="none" stroke="#FCEE21" stroke-width="3" x1="1908.181" y1="1061.889" x2="1908.181" y2="996.885"/>
		
			<line id="switchbOpen_1_" fill="none" stroke="#00FF00" stroke-width="3" x1="1908.181" y1="1061.889" x2="1889.781" y2="1105.229"/>
		
			<line id="switchbClose_1_" fill="none" stroke="#00FF00" stroke-width="3" x1="1908.181" y1="1105.229" x2="1908.181" y2="1061.889"/>
	</g>
	<g id="小车开关_5_">
		<line fill="none" stroke="#FCEE21" stroke-width="2" x1="1892.345" y1="1024.151" x2="1907.439" y2="1009.057"/>
		<line fill="none" stroke="#FCEE21" stroke-width="2" x1="1907.439" y1="1009.057" x2="1922.531" y2="1024.151"/>
		<line fill="none" stroke="#FCEE21" stroke-width="2" x1="1892.345" y1="1039.244" x2="1907.439" y2="1024.151"/>
		<line fill="none" stroke="#FCEE21" stroke-width="2" x1="1907.439" y1="1024.151" x2="1922.531" y2="1039.244"/>
		<line fill="none" stroke="#FCEE21" stroke-width="2" x1="1922.531" y1="1129.802" x2="1907.439" y2="1144.896"/>
		<line fill="none" stroke="#FCEE21" stroke-width="2" x1="1907.439" y1="1144.896" x2="1892.345" y2="1129.802"/>
		<line fill="none" stroke="#FCEE21" stroke-width="2" x1="1922.531" y1="1144.896" x2="1907.439" y2="1159.987"/>
		<line fill="none" stroke="#FCEE21" stroke-width="2" x1="1907.439" y1="1159.987" x2="1892.345" y2="1144.896"/>
	</g>
</g>
<g id="groundSwitchBWIDGET">
	
		<g id="switchBWIDGET_2_" onclick="alert('{&quot;compil_info&quot;:&quot;1&quot;,&quot;compil_version&quot;:&quot;0.1&quot;,&quot;widget_type&quot;:&quot;switchB&quot;,&quot;address&quot;:&quot;3&quot;}')">
		
			<line id="普通开关_x5F_连接线_12_" fill="none" stroke="#FCEE21" stroke-width="3" x1="1814.256" y1="1122.952" x2="1814.256" y2="1090.094"/>
		
			<line id="普通开关_x5F_连接线_9_" fill="none" stroke="#FCEE21" stroke-width="3" x1="1814.256" y1="1068.179" x2="1814.256" y2="1035.316"/>
		
			<line id="switchbOpen_2_" fill="none" stroke="#00FF00" stroke-width="3" x1="1814.256" y1="1068.179" x2="1793.531" y2="1090.094"/>
		
			<line id="switchbClose_2_" fill="none" stroke="#00FF00" stroke-width="3" x1="1814.256" y1="1090.094" x2="1814.256" y2="1068.179"/>
	</g>
	<g id="接地_x28_ground_x29__2_">
		<line fill="none" stroke="#FCEE21" stroke-width="2" x1="1814.256" y1="1096.275" x2="1814.256" y2="1131.01"/>
		<line fill="none" stroke="#FCEE21" stroke-width="2" x1="1797.631" y1="1131.01" x2="1831.641" y2="1131.01"/>
		<line fill="none" stroke="#FCEE21" stroke-width="2" x1="1803.297" y1="1139.692" x2="1825.973" y2="1139.692"/>
		<line fill="none" stroke="#FCEE21" stroke-width="2" x1="1810.477" y1="1148.375" x2="1818.035" y2="1148.375"/>
	</g>
</g>
<g id="sanjiaoCarSwitchBWIDGET">
	
		<g id="switchBWIDGET" onclick="alert('{&quot;compil_info&quot;:&quot;1&quot;,&quot;compil_version&quot;:&quot;0.1&quot;,&quot;widget_type&quot;:&quot;switchB&quot;,&quot;address&quot;:&quot;3&quot;}')">
		
			<line id="普通开关_x5F_连接线_2_" fill="none" stroke="#FCEE21" stroke-width="3" x1="2018.443" y1="976.03" x2="2018.443" y2="1041.035"/>
		
			<line id="普通开关_x5F_连接线_1_" fill="none" stroke="#FCEE21" stroke-width="3" x1="2018.443" y1="1084.375" x2="2018.443" y2="1149.385"/>
		<line id="switchbOpen" fill="none" stroke="#00FF00" stroke-width="3" x1="2018.443" y1="1084.375" x2="2036.838" y2="1041.035"/>
		
			<line id="switchbClose" fill="none" stroke="#00FF00" stroke-width="3" x1="2018.443" y1="1041.035" x2="2018.443" y2="1084.375"/>
	</g>
	<g id="小车开关_4_">
		<line fill="none" stroke="#FCEE21" stroke-width="2" x1="2003.002" y1="1003.302" x2="2018.093" y2="988.207"/>
		<line fill="none" stroke="#FCEE21" stroke-width="2" x1="2018.093" y1="988.207" x2="2033.189" y2="1003.302"/>
		<line fill="none" stroke="#FCEE21" stroke-width="2" x1="2003.002" y1="1018.393" x2="2018.093" y2="1003.302"/>
		<line fill="none" stroke="#FCEE21" stroke-width="2" x1="2018.093" y1="1003.302" x2="2033.189" y2="1018.393"/>
		<line fill="none" stroke="#FCEE21" stroke-width="2" x1="2033.189" y1="1108.951" x2="2018.093" y2="1124.052"/>
		<line fill="none" stroke="#FCEE21" stroke-width="2" x1="2018.093" y1="1124.052" x2="2003.002" y2="1108.951"/>
		<line fill="none" stroke="#FCEE21" stroke-width="2" x1="2033.189" y1="1124.052" x2="2018.093" y2="1139.136"/>
		<line fill="none" stroke="#FCEE21" stroke-width="2" x1="2018.093" y1="1139.136" x2="2003.002" y2="1124.052"/>
	</g>
	<polygon fill="#FFFFFF" fill-opacity="0" stroke="#FCEE21" stroke-width="2" points="1999.611,1149.969 2036.573,1150.485 
		2017.648,1182.242 	"/>
</g>
<g id="switchCWIDGET_1_" onclick="alert('{&quot;compil_info&quot;:&quot;1&quot;,&quot;compil_version&quot;:&quot;0.1&quot;,&quot;widget_type&quot;:&quot;switchC&quot;,&quot;address&quot;:&quot;3&quot;}')">
	<rect x="2189.375" y="1059.906" fill="#FFFFFF" stroke="#FCEE21" stroke-width="2" width="30.186" height="60.371"/>
	
		<rect id="switchOpen" x="2192.039" y="1059.906" fill="#FF0031" stroke="#FCEE21" stroke-width="2" width="30.186" height="60.371"/>
</g>
<g id="intoLineWIDGET">
	<g id="开开关">
		<g>
			<line fill="none" stroke="#E6E6E6" stroke-width="4" x1="2260.865" y1="1016.517" x2="2260.865" y2="1150.271"/>
			<polygon fill="#C1C0B2" stroke="#E6E6E6" stroke-width="4" points="2260.543,1163.668 2256.289,1149.724 2264.795,1149.724 			
				"/>
		</g>
	</g>
	
		<g id="switchCWIDGET" onclick="alert('{&quot;compil_info&quot;:&quot;1&quot;,&quot;compil_version&quot;:&quot;0.1&quot;,&quot;widget_type&quot;:&quot;switchC&quot;,&quot;address&quot;:&quot;3&quot;}')">
		<rect x="2244.865" y="1057.998" fill="#FFFFFF" stroke="#FCEE21" stroke-width="2" width="30.188" height="60.373"/>
		
			<rect id="switchOpen_1_" x="2245.529" y="1057.998" fill="#FF0031" stroke="#FCEE21" stroke-width="2" width="30.188" height="60.373"/>
	</g>
</g>
<g>
	<g id="小车开关_1_">
		<g id="小车开关">
			<line fill="none" stroke="#FCEE21" stroke-width="2" x1="2315.323" y1="1004.625" x2="2315.323" y2="1185.74"/>
			<line fill="none" stroke="#FCEE21" stroke-width="2" x1="2300.234" y1="1034.812" x2="2315.323" y2="1019.719"/>
			<line fill="none" stroke="#FCEE21" stroke-width="2" x1="2315.323" y1="1019.719" x2="2330.416" y2="1034.812"/>
			<line fill="none" stroke="#FCEE21" stroke-width="2" x1="2300.234" y1="1049.902" x2="2315.323" y2="1034.812"/>
			<line fill="none" stroke="#FCEE21" stroke-width="2" x1="2315.323" y1="1034.812" x2="2330.416" y2="1049.902"/>
			<line fill="none" stroke="#FCEE21" stroke-width="2" x1="2330.416" y1="1140.467" x2="2315.323" y2="1155.558"/>
			<line fill="none" stroke="#FCEE21" stroke-width="2" x1="2315.323" y1="1155.558" x2="2300.234" y2="1140.467"/>
			<line fill="none" stroke="#FCEE21" stroke-width="2" x1="2330.416" y1="1155.558" x2="2315.323" y2="1170.646"/>
			<line fill="none" stroke="#FCEE21" stroke-width="2" x1="2315.323" y1="1170.646" x2="2300.234" y2="1155.558"/>
		</g>
	</g>
	
		<g id="switchBWIDGET_5_" onclick="alert('{&quot;compil_info&quot;:&quot;1&quot;,&quot;compil_version&quot;:&quot;0.1&quot;,&quot;widget_type&quot;:&quot;switchC&quot;,&quot;address&quot;:&quot;3&quot;}')">
		<rect x="2298.49" y="1061.789" fill="#FFFFFF" stroke="#FCEE21" stroke-width="2" width="30.188" height="60.371"/>
		
			<rect id="switchOpen_2_" x="2299.156" y="1061.789" fill="#FF0031" stroke="#FCEE21" stroke-width="2" width="30.188" height="60.371"/>
	</g>
</g>
<g>
	<g>
		<g>
			<g id="开开关_1_">
				<g>
					<line fill="none" stroke="#E6E6E6" stroke-width="4" x1="2418.709" y1="985.904" x2="2418.709" y2="1103.861"/>
				</g>
			</g>
			
				<rect x="2410.402" y="1058.939" onclick="alert('{&quot;compil_info&quot;:&quot;1&quot;,&quot;compil_version&quot;:&quot;0.1&quot;,&quot;widget_type&quot;:&quot;xiaocheSwitch&quot;,&quot;ng-show&quot;:&quot;newCurrentData.yaoxinObj['2'].value==1&quot;}')" fill="none" stroke="#FCEE21" stroke-width="2" width="17.114" height="32.697"/>
			<line fill="none" stroke="#E6E6E6" stroke-width="4" x1="2418.709" y1="1103.861" x2="2362.728" y2="1182.052"/>
			<line fill="none" stroke="#E6E6E6" stroke-width="4" x1="2418.709" y1="1103.861" x2="2477.015" y2="1182.052"/>
			<line fill="none" stroke="#E6E6E6" stroke-width="4" x1="2362.728" y1="1182.052" x2="2477.015" y2="1182.052"/>
			<line fill="none" stroke="#E6E6E6" stroke-width="4" x1="2388.073" y1="1128.365" x2="2408.15" y2="1142.344"/>
			<line fill="none" stroke="#E6E6E6" stroke-width="4" x1="2379.257" y1="1140.859" x2="2399.336" y2="1154.844"/>
			<line fill="none" stroke="#E6E6E6" stroke-width="4" x1="2452.07" y1="1126.566" x2="2432.14" y2="1140.732"/>
			<line fill="none" stroke="#E6E6E6" stroke-width="4" x1="2460.448" y1="1138.277" x2="2440.515" y2="1152.437"/>
			<line fill="none" stroke="#E6E6E6" stroke-width="4" x1="2426.297" y1="1169.824" x2="2426.715" y2="1194.279"/>
			<line fill="none" stroke="#E6E6E6" stroke-width="4" x1="2410.695" y1="1169.824" x2="2411.115" y2="1194.279"/>
		</g>
	</g>
	
		<g id="switchBWIDGET_6_" onclick="alert('{&quot;compil_info&quot;:&quot;1&quot;,&quot;compil_version&quot;:&quot;0.1&quot;,&quot;widget_type&quot;:&quot;switchC&quot;,&quot;address&quot;:&quot;3&quot;}')">
		<rect x="2409.394" y="999.525" fill="#FFFFFF" stroke="#FCEE21" stroke-width="2" width="18.229" height="51.594"/>
		
			<rect id="switchOpen_3_" x="2409.795" y="999.525" fill="#FF0031" stroke="#FCEE21" stroke-width="2" width="18.229" height="51.594"/>
	</g>
</g>
<g id="functionBtnWIDGET_2_" onclick="alert('{&quot;compil_info&quot;:&quot;1&quot;,&quot;compil_version&quot;:&quot;0.1&quot;,&quot;widget_type&quot;:&quot;functionBtn&quot;,&quot;ng-click&quot;:&quot;showTimeCheck()&quot;}')">
	
		<rect id="isShowTime" x="2426.715" y="108.123" fill="#FFFF00" stroke="#FFFFFF" stroke-width="2" width="151.206" height="58.103"/>
	<text transform="matrix(0.5709 0 0 1 2440.8899 147.9851)" font-family="'MicrosoftYaHei'" font-size="40">切换演示数据</text>
</g>
<g id="hoverBtnWIDGET" onclick="alert('{&quot;compil_info&quot;:&quot;1&quot;,&quot;compil_version&quot;:&quot;0.1&quot;,&quot;widget_type&quot;:&quot;linkBtn&quot;,&quot;ng-click&quot;:&quot;getSvg('client/DDD/SVG/电.svg')&quot;}')">
	<rect x="1853.352" y="810.101" fill="#F4F4F2" fill-opacity="0" stroke="#347BB7" width="209.41" height="116.92"/>
	<rect x="1860.927" y="825.486" fill="#EEE932" stroke="#ED2224" width="192.882" height="88.203"/>
	<rect x="1861.615" y="848.561" fill="none" width="192.879" height="37.949"/>
	
		<text transform="matrix(0.6716 0 0 1 1929.1243 886.4685)" fill="#010101" font-family="'AdobeSongStd-Light-GBpc-EUC-H'" font-size="43.076">电力概览</text>
</g>
<g id="关闭门" onclick="alert('{&quot;compil_info&quot;:&quot;1&quot;,&quot;compil_version&quot;:&quot;0.1&quot;,&quot;widget_type&quot;:&quot;closedoor&quot;,&quot;address&quot;:3}')">
	<path fill="#FFFFFF" stroke="#33FF00" stroke-width="6" d="M656.789,694.591c0,4.034-2.806,7.309-6.264,7.309h-85.922
		c-3.458,0-6.262-3.271-6.262-7.309V560.2c0-4.036,2.803-7.308,6.262-7.308h85.922c3.458,0,6.264,3.271,6.264,7.308V694.591z"/>
	<line fill="none" stroke="#666699" stroke-width="6" x1="638.989" y1="614.309" x2="638.989" y2="626.199"/>
</g>
<g id="打开门" onclick="alert('{&quot;compil_info&quot;:&quot;1&quot;,&quot;compil_version&quot;:&quot;0.1&quot;,&quot;widget_type&quot;:&quot;opendoor&quot;,&quot;address&quot;:3}')">
	<path fill="#FFFFFF" stroke="#FF0000" stroke-width="6" d="M819.127,694.591c0,4.034-2.806,7.309-6.265,7.309h-85.921
		c-3.458,0-6.262-3.271-6.262-7.309V560.2c0-4.036,2.803-7.308,6.262-7.308h85.921c3.459,0,6.265,3.271,6.265,7.308V694.591z"/>
	<polygon fill="#FFFFFF" stroke="#FF0000" stroke-width="6" points="801.166,723.663 723.156,700.641 723.156,559.372 
		801.166,582.393 	"/>
	<line fill="none" stroke="#666699" stroke-width="6" x1="786.5" y1="632.309" x2="786.5" y2="644.199"/>
</g>
<circle id="lampA_x5F_WIDGET" onclick="alert('{&quot;widget_name&quot;:&quot;lampA_WIDGET&quot;,&quot;address&quot;:&quot;2&quot;,&quot;signalType&quot;:&quot;yaoxin&quot;}')" fill="#FF0000" stroke="#FFFF00" stroke-width="2" cx="164.198" cy="348.153" r="57.904"/>
<circle id="lampA_x5F_WIDGET_1_" onclick="alert('{&quot;widget_name&quot;:&quot;lampA_WIDGET&quot;,&quot;address&quot;:&quot;4&quot;,&quot;signalType&quot;:&quot;yaoxin&quot;}')" fill="#FF0000" stroke="#FFFF00" stroke-width="2" cx="374.155" cy="348.153" r="57.904"/>
<g id="lampB_x5F_WIDGET" onclick="alert('{&quot;widget_name&quot;:&quot;lampB_WIDGET&quot;,&quot;address&quot;:&quot;2&quot;,&quot;signalType&quot;:&quot;yaoxin&quot;}')">
	<ellipse stroke="#FCEE21" stroke-width="2" cx="686.528" cy="380.448" rx="65.399" ry="37.292"/>
	<path id="colorIndicate_3_" fill="#3333FF" stroke="#FCEE21" stroke-width="2" d="M736.02,304.489
		c0-17.079-21.775-30.92-48.658-30.92c-26.885,0-48.658,13.846-48.658,30.918c0,2.193,0.369,4.346,1.063,6.396h-1.063v76.761h97.314
		v-76.758h-1.06C735.656,308.826,736.02,306.679,736.02,304.489z"/>
</g>
<g id="lampB_x5F_WIDGET_1_" onclick="alert('{&quot;widget_name&quot;:&quot;lampB_WIDGET&quot;,&quot;address&quot;:&quot;4&quot;,&quot;signalType&quot;:&quot;yaoxin&quot;}')">
	<ellipse stroke="#FCEE21" stroke-width="2" cx="946.024" cy="382.947" rx="65.399" ry="37.292"/>
	<path id="colorIndicate_2_" fill="#3333FF" stroke="#FCEE21" stroke-width="2" d="M995.516,306.988
		c0-17.079-21.775-30.92-48.658-30.92c-26.885,0-48.658,13.846-48.658,30.918c0,2.193,0.369,4.346,1.063,6.396h-1.063v76.761h97.314
		v-76.758h-1.06C995.153,311.324,995.516,309.178,995.516,306.988z"/>
</g>
<g id="switchBWIDGET_3_" onclick="alert('{&quot;widget_name&quot;:&quot;switchA_WIDGET&quot;,&quot;address&quot;:&quot;2&quot;,&quot;signalType&quot;:&quot;yaoxin&quot;}')">
	
		<line id="普通开关_x5F_连接线_14_" fill="none" stroke="#FCEE21" stroke-width="3" x1="1148.795" y1="386.237" x2="1148.795" y2="357.671"/>
	
		<line id="普通开关_x5F_连接线_13_" fill="none" stroke="#FCEE21" stroke-width="3" x1="1148.795" y1="338.63" x2="1148.795" y2="310.07"/>
	<line id="switchbOpen_3_" fill="none" stroke="#00FF00" stroke-width="3" x1="1148.795" y1="338.63" x2="1130.399" y2="357.671"/>
	<line id="switchbClose_3_" fill="none" stroke="#00FF00" stroke-width="3" x1="1148.795" y1="357.671" x2="1148.795" y2="338.63"/>
</g>
<g id="switchBWIDGET_4_" onclick="alert('{&quot;widget_name&quot;:&quot;switchA_WIDGET&quot;,&quot;address&quot;:&quot;4&quot;,&quot;signalType&quot;:&quot;yaoxin&quot;}')">
	
		<line id="普通开关_x5F_连接线_5_" fill="none" stroke="#FCEE21" stroke-width="3" x1="1255.721" y1="386.234" x2="1255.721" y2="357.669"/>
	
		<line id="普通开关_x5F_连接线_4_" fill="none" stroke="#FCEE21" stroke-width="3" x1="1255.721" y1="338.628" x2="1255.721" y2="310.067"/>
	<line id="switchbOpen_4_" fill="none" stroke="#00FF00" stroke-width="3" x1="1255.721" y1="338.628" x2="1237.324" y2="357.669"/>
	
		<line id="switchbClose_4_" fill="none" stroke="#00FF00" stroke-width="3" x1="1255.721" y1="357.669" x2="1255.721" y2="338.628"/>
</g>
</svg>
